<svg id="eb0CHOiQ94y1" xmlns="http://www.w3.org/2000/svg" xmlns:xlink="http://www.w3.org/1999/xlink" viewBox="0 0 450 200" shape-rendering="geometricPrecision" text-rendering="geometricPrecision"><path d="M161.82883,111.70313c.05469-1.47656.10254-2.98958.14356-4.53906s.07975-3.07845.11621-4.58692.0638-2.97363.08203-4.39551.02734-2.74805.02734-3.97852c.01823-.24609.23242-.44206.64258-.58789s.90006-.25293,1.46973-.32129s1.17122-.11165,1.80469-.12988s1.19629-.02734,1.68848-.02734c.10937,0,.33724-.00456.68359-.01367h.25977c.26432,0,.54232.00911.83398.02734.38281.02734.71777.08659,1.00488.17773s.43066.22331.43066.39648c0,.1276-.05013.23014-.15039.30762s-.21647.13444-.34863.1709-.26888.05925-.41016.06836-.23926.01367-.29395.01367c-.85677,0-1.70443-.01367-2.54297-.04102-.22786-.00911-.46029-.01367-.69726-.01367-.61979,0-1.2487.02734-1.88672.08203.03646.10938.06608.43978.08887.99121s.03418,1.1735.03418,1.86621-.00456,1.36947-.01367,2.03027-.00911,1.16895,0,1.52441v3.55469c.28255-.01823.56055-.02734.83398-.02734h.82031l.54688-.02734c.18229-.00911.3737-.01367.57422-.01367.20964,0,.42383.00456.64258.01367.4375.01823.83626.07064,1.19629.15723s.54004.23926.54004.45801c0,.16406-.06836.28483-.20508.3623s-.28939.13444-.45801.1709-.32813.05469-.47852.05469h-.25293c-.51953,0-1.05957-.01823-1.62012-.05469s-1.08236-.05469-1.56543-.05469c-.09115.03646-.18913.05013-.29395.04102s-.19824-.01367-.28027-.01367c0,1.36719-.01367,2.72754-.04102,4.08106s-.05924,2.70019-.0957,4.04004c0,.26432-.16634.4375-.49902.51953s-.64941.12305-.9502.12305c-.33724,0-.60384-.04102-.7998-.12305s-.33496-.21647-.41699-.40332-.13216-.43522-.15039-.74512c-.00911-.17318-.01823-.36458-.02734-.57422c0-.17318.00456-.36003.01367-.56055v.00001Zm11.15174-16.4336c0-.42839.05241-.74056.15723-.93652s.25521-.33268.45117-.41016.43294-.1071.71094-.08887.60384.02734.97754.02734c.94792,0,1.90495.14583,2.87109.4375s1.83659.71777,2.61133,1.27832s1.39909,1.25098,1.87305,2.07129.71094,1.76367.71094,2.83008c0,.71094-.10254,1.38314-.30762,2.0166s-.49447,1.22591-.86816,1.77734-.8112,1.05501-1.3125,1.51074-1.05273.85221-1.6543,1.18945c.24609.24609.5651.68132.95703,1.30566s.7793,1.28971,1.16211,1.99609.72233,1.39225,1.01855,2.05762.47168,1.16667.52637,1.50391l-.16406.24609c-.24609.14583-.54232.22331-.88867.23242-.16406,0-.37826-.02051-.64258-.06152s-.43294-.16178-.50586-.36231c-.3737-1.04818-.78158-2.12826-1.22363-3.24023s-.98665-2.11458-1.63379-3.00781v-.02734c-.22786.09115-.45345.18001-.67676.2666s-.44889.16634-.67676.23926c.07292,1.01172.14811,2.00749.22559,2.9873s.11621,1.97103.11621,2.97363c0,.1276-.06152.23014-.18457.30762s-.26204.139-.41699.18457-.31217.07747-.47168.0957-.28939.02734-.38965.02734c-.09115,0-.22103-.00911-.38965-.02734s-.3304-.05013-.48535-.0957-.28939-.11165-.40332-.19824-.1709-.2028-.1709-.34863c0-1.01172-.02279-2.02116-.06836-3.02832s-.0957-2.01204-.15039-3.01465c-.28255-.18229-.42383-.41927-.42383-.71094c0-.22786.10938-.38281.32813-.46484-.10937-1.92318-.2347-3.8418-.37598-5.75586s-.21191-3.8418-.21191-5.7832l-.00001.00001Zm2.47461-.42383c.1276,1.97786.27116,3.93294.43066,5.86523s.31217,3.88737.45801,5.86523c.63802-.18229,1.23275-.49902,1.78418-.95019s1.02767-.95931,1.42871-1.52441.71322-1.18034.93652-1.8457.33496-1.32617.33496-1.98242c0-.72917-.14583-1.42871-.4375-2.09863s-.67904-1.25553-1.16211-1.75684c-.49219-.5013-1.05729-.89323-1.69531-1.17578-.5651-.24609-1.15755-.36914-1.77734-.36914h-.24609l-.05469-.02735Zm10.68689,18.96289c.03646-1.90495.11621-3.80534.23926-5.70117s.23014-3.79622.32129-5.70117c.01823-.72917.02734-1.39225.02734-1.98926s.02962-1.11426.08887-1.55176.16862-.77246.32813-1.00488.42611-.34863.7998-.34863c.31901,0,.56055.04557.72461.13672s.28939.20736.37598.34863.139.30078.15723.47852.02734.35775.02734.54004c0,.26432.00911.52637.02734.78613s.02734.52181.02734.78613c0,1.92318-.05241,3.8418-.15723,5.75586s-.15723,3.8418-.15723,5.7832c0,.28255.00456.56738.01367.85449s.01367.58105.01367.88184c0,.10938-.05013.20052-.15039.27344s-.22559.13444-.37598.18457-.3099.08431-.47852.10254-.30762.02734-.41699.02734c-.1276,0-.27116-.00911-.43066-.02734s-.31445-.05697-.46484-.11621-.27799-.12988-.38281-.21191-.15723-.17773-.15723-.28711l.00001-.00001Zm.76563-18.53906c0-.09115.01367-.19368.04102-.30762s.05924-.21647.0957-.30762c.01823-.10938.04557-.29622.08203-.56055s.10254-.52181.19824-.77246.22786-.47396.39648-.66992.40788-.29394.71777-.29394h.25977c.14583.03646.29395.08203.44434.13672s.22559.18685.22559.39648c0,.09115-.00456.17773-.01367.25977s-.02279.17318-.04102.27344c-.07292.53776-.14355.96159-.21191,1.27148s-.14811.5446-.23926.7041-.20736.26204-.34863.30762-.32129.07747-.54004.0957c-.07292,0-.1709-.00456-.29395-.01367s-.24154-.0319-.35547-.06836-.21191-.09342-.29395-.1709-.12305-.1709-.12305-.28027h.00001Zm5.25916,17.25391c.01823-.38281.02734-.75651.02734-1.12109c0-1.32161.04785-2.63867.14355-3.95117s.16178-2.62956.19824-3.95117c.05469-1.51302.10482-3.01237.15039-4.49805s.13672-2.98047.27344-4.48437c.03646-.3737.14355-.61751.32129-.73144s.44434-.1709.7998-.1709c.16406,0,.38281.0319.65625.0957s.41016.21875.41016.46484c.1276.01823.25521.02734.38281.02734.19141,0,.38737-.01823.58789-.05469.32813-.05469.66309-.11621,1.00488-.18457s.68132-.13444,1.01856-.19824.66081-.0957.9707-.0957c.07292,0,.17546.00456.30762.01367s.26432.03646.39649.08203.24381.10254.33496.1709.13672.15723.13672.2666-.1071.20736-.32129.29394-.49447.16178-.84082.22559-.72005.11849-1.12109.16406-.79297.08431-1.17578.11621-.72233.05697-1.01856.07519-.50814.02734-.63574.02734l-.02734,5.14063.02734,2.55664c.28255,0,.70638-.00911,1.27148-.02734.22786-.00911.45573-.01367.68359-.01367.34635,0,.70182.00911,1.06641.02734.60156.02734,1.14388.08203,1.62695.16406s.78841.22786.91602.4375c0,.1276-.06608.23014-.19824.30762s-.28027.13444-.44434.1709-.3304.05924-.49902.06836-.28939.01367-.3623.01367c-.67448,0-1.35352-.01367-2.03711-.04102s-1.35807-.08203-2.02344-.16406c0,1.12109-.02962,2.23307-.08887,3.33594s-.08887,2.21484-.08887,3.33594c0,.48307.00456.95931.01367,1.42871s.0638.93652.16406,1.40137c.24609-.01823.5127-.04102.7998-.06836s.57878-.06152.875-.10254.58105-.07519.85449-.10254.51042-.04102.71094-.04102c.10938,0,.25749.01367.44434.04102s.37826.07292.57422.13672.36458.14355.50586.23926.21191.20736.21191.33496c0,.14583-.13444.27572-.40332.38965s-.61296.20508-1.03223.27344-.87728.11621-1.37402.14355-.97754.04557-1.44238.05469-.88411.01367-1.25781.01367h-.79297c-.5013,0-.86816-.09342-1.10059-.28027s-.39421-.43066-.48535-.73144c-.07292-.24609-.10482-.52409-.0957-.83398l.00001-.19142Zm11.37048-17.54102c0-.63802.10938-1.06641.32813-1.28516s.52409-.32812.91602-.32812c.10938,0,.22559.00911.34863.02734s.23926.04557.34863.08203c.61068-.11849,1.18945-.17773,1.73633-.17773.88411,0,1.6862.15495,2.40625.46484c1.15755.49219,2.11458,1.22135,2.87109,2.1875s1.3125,2.10091,1.66797,3.4043.5332,2.63867.5332,4.00586c0,.76563-.05241,1.56315-.15723,2.39258s-.30762,1.59961-.6084,2.31055c-.26432.63802-.62891,1.30566-1.09375,2.00293s-.99121,1.35807-1.5791,1.98242-1.22135,1.17122-1.90039,1.64063-1.36491.78613-2.05762.95019v.10938c0,.18229-.04785.3304-.14355.44434s-.21191.20052-.34863.25977-.29395.09798-.47168.11621-.34408.02734-.49902.02734c-.09115,0-.22103-.00911-.38965-.02734s-.33268-.05241-.49219-.10254-.29395-.11621-.40332-.19824-.16406-.19596-.16406-.3418c0-1.65885-.04329-3.31999-.12988-4.9834s-.18457-3.32682-.29395-4.99023-.20736-3.32454-.29395-4.9834-.12988-3.32227-.12988-4.99023v-.00002Zm2.58399-.69726c.09115.875.15039,1.74772.17773,2.61816s.06836,1.74316.12305,2.61816c.14583,2.26042.31445,4.50944.50586,6.74707s.30534,4.48665.3418,6.74707c.875-.57422,1.62467-1.23047,2.24902-1.96875s1.13704-1.54036,1.53809-2.40625.69499-1.77506.88184-2.72754.28027-1.93457.28027-2.94629c0-.72917-.0638-1.53125-.19141-2.40625s-.34635-1.7181-.65625-2.5293-.72689-1.54492-1.25098-2.20117-1.17806-1.12565-1.96191-1.4082c-.16406-.05469-.3623-.10026-.59473-.13672s-.60384-.05469-1.11426-.05469c-.05469,0-.10937.00911-.16406.02734s-.10938.02734-.16406.02734v.00002Zm16.68433,15.35351c0-1.97786.08887-3.95801.2666-5.94043s.54915-3.93522,1.11426-5.8584c.16406-.57422.37826-1.1416.64258-1.70215s.58789-1.05957.9707-1.49707.83854-.79297,1.36719-1.06641s1.15755-.41016,1.88672-.41016l.28711.02734c.78385.10938,1.36263.42611,1.73633.9502s.56055,1.17806.56055,1.96191c0,.20964-.02507.47168-.0752.78613s-.12988.61751-.23926.90918-.25749.54004-.44434.74512-.42155.30762-.7041.30762c-.1276-.01823-.24382-.04102-.34863-.06836s-.2028-.08659-.29395-.17773c.14583-.31901.27572-.65169.38965-.99805s.1709-.74284.1709-1.18945c0-.16406-.01367-.3737-.04101-.62891s-.07975-.50814-.15723-.75879-.18001-.4694-.30762-.65625-.30534-.28027-.5332-.28027c-.57422,0-1.05729.32129-1.44922.96387s-.72005,1.46289-.98437,2.46094-.46029,2.10091-.58789,3.30859-.22559,2.37435-.29395,3.5-.1071,2.14193-.11621,3.04883-.01367,1.5472-.01367,1.9209c0,.4375-.00456.92057-.01367,1.44922v.17773c.00911.46484.04101.9069.0957,1.32617.07292.47396.21419.88411.42383,1.23047s.53776.54687.98438.60156c.13672.01823.26888.02734.39648.02734.52865,0,1.00716-.15039,1.43555-.45117.52865-.3737.99805-.85905,1.4082-1.45606s.77474-1.25325,1.09375-1.96875.61296-1.39225.88184-2.03027.53092-1.16667.78613-1.58594.51953-.62891.79297-.62891c.09115,0,.22786.01823.41016.05469s.27344.12305.27344.25977c0,.03646-.00911.08659-.02734.15039s-.04102.11393-.06836.15039c-.24609.96615-.55827,1.96875-.93652,3.00781s-.86133,1.9847-1.44922,2.83691-1.30794,1.5472-2.16016,2.08496-1.87533.80664-3.06934.80664c-.85677,0-1.55176-.16178-2.08496-.48535s-.94336-.75651-1.23047-1.29883-.48307-1.15527-.58789-1.83887-.15723-1.3763-.15723-2.07812l-.00001.00002Zm14.51502-12.0791c-.01823-.24154.00228-.4694.06152-.68359s.1709-.39193.33496-.5332.44206-.21191.83398-.21191c.09115,0,.2028.00911.33496.02734s.26432.04785.39649.08887.23926.09798.32129.1709.12305.17318.12305.30078c0,.33724.01139.78158.03418,1.33301s.05241,1.12565.08887,1.72266.07064,1.18034.10254,1.75.06152,1.03223.08887,1.3877c.71094-.03646,1.42643-.05469,2.14648-.05469s1.43099-.01823,2.13281-.05469l1.88672-.05469v-1.35352c0-1.51302-.02962-3.02832-.08887-4.5459s-.16178-3.03288-.30762-4.5459c0-.10937.04557-.19824.13672-.2666s.19824-.12077.32129-.15723.25065-.05924.38281-.06836.2347-.01367.30762-.01367c.20964,0,.43522.0319.67676.0957s.38053.20052.41699.41016l.08203.58789c.22786,1.64063.38281,3.26302.46484,4.86719s.14128,3.20833.17774,4.8125c.10937.01823.22559.04785.34863.08887s.24837.07975.37598.11621c.09115.03646.22103.09115.38965.16406s.25293.18685.25293.3418c0,.14583-.0638.25977-.19141.3418s-.27116.14355-.43066.18457-.31445.06608-.46484.0752-.24381.01367-.28027.01367c.01823.67448.02734,1.34668.02734,2.0166v8.89355c0,.10937-.05241.20736-.15723.29395s-.23014.15723-.37598.21191-.2985.09115-.45801.10938-.30306.02734-.43066.02734-.278-.00911-.45117-.02734-.32813-.05469-.46484-.10937-.25749-.12305-.3623-.20508-.15723-.18229-.15723-.30078v-.58789c.03646-1.73177.07747-3.44759.12305-5.14746s.09115-3.40658.13672-5.12012c-.99349.03646-2.00293.05924-3.02832.06836s-2.04395.0319-3.05566.06836c.10937,1.28516.2347,2.56803.37598,3.84863s.28939,2.56348.44433,3.84863c0,.10938-.05241.20736-.15723.29395s-.22787.15723-.36914.21191-.29167.09115-.45117.10938-.30306.02734-.43066.02734c-.26432,0-.55371-.04557-.86816-.13672s-.48991-.25977-.52637-.50586c-.10937-.96615-.21191-2.03255-.30762-3.19922s-.18001-2.3584-.25293-3.5752-.12988-2.40853-.1709-3.57519-.06152-2.22396-.06152-3.17187c0-.22786-.00911-.46257-.02734-.7041l-.00002-.00002Zm15.62245,16.24902c.03646-1.90495.11621-3.80534.23926-5.70117s.23014-3.79622.32129-5.70117c.01823-.72917.02734-1.39225.02734-1.98926s.02962-1.11426.08887-1.55176.16862-.77246.32813-1.00488.42611-.34863.79981-.34863c.31901,0,.56055.04557.72461.13672s.28939.20736.37598.34863.139.30078.15723.47852.02734.35775.02734.54004c0,.26432.00911.52637.02734.78613s.02734.52181.02734.78613c0,1.92318-.05241,3.8418-.15723,5.75586s-.15723,3.8418-.15723,5.7832c0,.28255.00456.56738.01367.85449s.01367.58105.01367.88184c0,.10938-.05013.20052-.15039.27344s-.22559.13444-.37598.18457-.3099.08431-.47852.10254-.30762.02734-.41699.02734c-.1276,0-.27116-.00911-.43066-.02734s-.31445-.05697-.46484-.11621-.27799-.12988-.38281-.21191-.15723-.17773-.15723-.28711v-.00001Zm.76562-18.53906c0-.09115.01367-.19368.04102-.30762s.05924-.21647.0957-.30762c.01823-.10938.04557-.29622.08203-.56055s.10254-.52181.19824-.77246.22786-.47396.39648-.66992.40788-.29394.71777-.29394h.25977c.14583.03646.29395.08203.44434.13672s.22559.18685.22559.39648c0,.09115-.00456.17773-.01367.25977s-.02279.17318-.04102.27344c-.07292.53776-.14355.96159-.21191,1.27148s-.14811.5446-.23926.7041-.20736.26204-.34863.30762-.32129.07747-.54004.0957c-.07292,0-.1709-.00456-.29395-.01367s-.24154-.0319-.35547-.06836-.21191-.09342-.29395-.1709-.12305-.1709-.12305-.28027h.00001Zm5.2865,11.70313v-2.16016c0-1.49479.02506-2.97819.0752-4.45019s.09343-2.9554.12988-4.4502c0-.28255-.00911-.597-.02734-.94336-.00911-.10026-.01367-.19596-.01367-.28711c0-.22786.01823-.45117.05469-.66992.04557-.29167.15723-.54232.33496-.75195s.47168-.31445.88184-.31445c.33724,0,.59473.03646.77246.10938s.30306.18001.37598.32129.11393.31901.12305.5332.01367.46256.01367.74512c0,1.51302-.01823,3.0306-.05469,4.55273-.02734,1.01172-.04102,2.02344-.04102,3.03516c0,.51042.00456,1.02083.01367,1.53125.01823,1.51302.08887,3.02604.21191,4.53906s.3304,3.00781.62207,4.48438c.91146-.03646,1.82292-.08203,2.73438-.13672s1.82292-.08203,2.73438-.08203c.09115,0,.22103.00911.38965.02734s.33724.05013.50586.0957.31217.10482.43066.17773.17773.17773.17773.31445c0,.09115-.04102.16862-.12305.23242s-.15951.11393-.23242.15039h-.02734c-.14583.07292-.43522.14355-.86816.21191s-.92513.12077-1.47656.15723-1.13021.06836-1.73633.0957-1.17578.05013-1.70898.06836-.99577.0319-1.3877.04102-.63346.01367-.72461.01367h-.12305c-.21875,0-.46484-.03646-.73828-.10937-.32812-.09115-.5332-.26888-.61523-.5332-.16406-.67448-.29395-1.37402-.38965-2.09863s-.16862-1.46061-.21875-2.20801-.0752-1.49479-.0752-2.24219h-.00001Zm12.4369,0v-2.16016c0-1.49479.02507-2.97819.0752-4.45019s.09342-2.9554.12988-4.4502c0-.28255-.00911-.597-.02734-.94336-.00911-.10026-.01367-.19596-.01367-.28711c0-.22786.01823-.45117.05469-.66992.04557-.29167.15723-.54232.33496-.75195s.47168-.31445.88184-.31445c.33724,0,.59473.03646.77246.10938s.30306.18001.37598.32129.11393.31901.12305.5332.01367.46256.01367.74512c0,1.51302-.01823,3.0306-.05469,4.55273-.02734,1.01172-.04102,2.02344-.04102,3.03516c0,.51042.00456,1.02083.01367,1.53125.01823,1.51302.08887,3.02604.21191,4.53906s.3304,3.00781.62207,4.48438c.91146-.03646,1.82292-.08203,2.73438-.13672s1.82292-.08203,2.73438-.08203c.09115,0,.22103.00911.38965.02734s.33724.05013.50586.0957.31217.10482.43066.17773.17773.17773.17773.31445c0,.09115-.04102.16862-.12305.23242s-.15951.11393-.23242.15039h-.02734c-.14583.07292-.43522.14355-.86816.21191s-.92513.12077-1.47656.15723-1.13021.06836-1.73633.0957-1.17578.05013-1.70898.06836-.99577.0319-1.3877.04102-.63346.01367-.72461.01367h-.12305c-.21875,0-.46484-.03646-.73828-.10937-.32813-.09115-.5332-.26888-.61523-.5332-.16406-.67448-.29395-1.37402-.38965-2.09863s-.16862-1.46061-.21875-2.20801-.0752-1.49479-.0752-2.24219h-.00001Zm12.40955,6.83593c.03646-1.90495.11621-3.80534.23926-5.70117s.23014-3.79622.32129-5.70117c.01823-.72917.02734-1.39225.02734-1.98926s.02962-1.11426.08887-1.55176.16862-.77246.32813-1.00488.42611-.34863.7998-.34863c.31901,0,.56055.04557.72461.13672s.28939.20736.37598.34863.139.30078.15723.47852.02734.35775.02734.54004c0,.26432.00911.52637.02734.78613s.02734.52181.02734.78613c0,1.92318-.05241,3.8418-.15723,5.75586s-.15723,3.8418-.15723,5.7832c0,.28255.00456.56738.01367.85449s.01367.58105.01367.88184c0,.10938-.05013.20052-.15039.27344s-.22559.13444-.37598.18457-.3099.08431-.47852.10254-.30762.02734-.41699.02734c-.1276,0-.27116-.00911-.43066-.02734s-.31445-.05697-.46484-.11621-.27799-.12988-.38281-.21191-.15723-.17773-.15723-.28711l.00001-.00001Zm.76562-18.53906c0-.09115.01367-.19368.04102-.30762s.05924-.21647.0957-.30762c.01823-.10938.04557-.29622.08203-.56055s.10254-.52181.19824-.77246.22787-.47396.39648-.66992.40788-.29394.71777-.29394h.25977c.14583.03646.29395.08203.44434.13672s.22559.18685.22559.39648c0,.09115-.00456.17773-.01367.25977s-.02279.17318-.04102.27344c-.07292.53776-.14355.96159-.21191,1.27148s-.14811.5446-.23926.7041-.20736.26204-.34863.30762-.32129.07747-.54004.0957c-.07292,0-.1709-.00456-.29394-.01367s-.24154-.0319-.35547-.06836-.21191-.09342-.29395-.1709-.12305-.1709-.12305-.28027Z" transform="matrix(3.25659 0 0 3.25659-506.472918-234.004434)" fill="#ab7a5f"/></svg>
